<svg xmlns="http://www.w3.org/2000/svg" viewBox="0 0 128 128">
  <path fill="#336791" d="M93.809 92.112c.785-6.533.55-7.492 5.416-6.433l1.235.108c3.742.17 8.637-.602 11.513-1.938 6.191-2.873 9.861-7.668 3.758-6.409-13.924 2.873-14.881-1.842-14.881-1.842 14.703-21.815 20.849-49.508 15.543-56.287-14.47-18.489-39.517-9.746-39.936-9.52l-.134.025c-2.751-.571-5.83-.912-9.289-.968-6.301-.104-11.082 1.652-14.709 4.402 0 0-44.683-18.409-42.604 23.151.442 8.841 12.672 66.898 27.26 49.362 5.332-6.412 10.484-11.834 10.484-11.834 2.558 1.7 5.622 2.567 8.834 2.255l.249-.212c-.078.796-.044 1.575.099 2.497-3.757 4.199-2.653 4.936-10.166 6.482-7.602 1.566-3.136 4.355-.221 5.084 3.535.884 11.712 2.136 17.238-5.598l-.22.882c1.474 1.18 1.375 8.477 1.583 13.69.209 5.214.558 10.079 1.621 12.948 1.063 2.868 2.317 10.256 12.191 8.14 8.252-1.764 14.561-4.309 15.136-27.96"/>
  <path fill="#fff" d="M75.458 125.256c-4.367 0-7.211-1.689-8.938-3.32-2.607-2.46-3.641-5.629-4.259-7.522l-.267-.79c-1.244-3.358-1.666-8.193-1.916-14.419-.038-.935-.064-1.898-.093-2.919-.066-2.38-.139-5.063-.388-7.236-.106-.93-.259-1.732-.387-2.411-.096-.51-.178-.942-.221-1.337-.043-.395-.089-.907-.089-1.573 0-.248.015-.56.032-.888l.009-.159c.07-1.258.158-2.826-.211-3.639-.341-.751-1.475-2.093-2.863-3.741-1.388-1.648-2.962-3.516-4.05-5.271-1.635-2.633-2.009-5.154-2.009-6.646 0-.404.016-.755.046-1.056.094-.953.335-1.884.632-2.792l.186-.574c.045-.136.081-.263.114-.383l.063-.233c.045-.177.088-.352.133-.56.083-.383.161-.851.161-1.337 0-.434-.058-.867-.174-1.288-.211-.768-.589-1.459-1.033-2.017-.348-.438-.759-.814-1.159-1.136-.145-.116-.31-.227-.473-.336-.141-.093-.278-.182-.394-.27-.066-.051-.137-.107-.21-.165l-.101-.08c-.025-.019-.052-.04-.08-.06l-10.544 12.688c-14.588 17.549-27.267-40.52-27.709-49.36-1.239-24.759 17.264-28.195 32.52-25.274 1.106.211 2.188.417 3.243.615 3.072.576 5.996 1.117 8.824 1.384 1.475.139 2.931.206 4.37.2 2.456-.01 4.865-.226 7.219-.643l.327-.06c.108-.02.228-.042.346-.064l.206-.038c.159-.032.306-.062.456-.092l.37-.078c-.093-.023-.185-.044-.278-.066a70.543 70.543 0 0 1-.447-.109l-.095-.024-.012-.003c-.148-.038-.317-.084-.455-.124l-.011-.003-.094-.026-.271-.078-.295-.087-.141-.043-.101-.034a67.48 67.48 0 0 1-.47-.158l-.031-.011c-.093-.033-.18-.064-.258-.093l-.172-.065c-.03-.012-.06-.023-.088-.035l-1.262-.537c-2.259-.965-4.642-1.736-7.137-2.301-2.558-.579-5.23-.952-7.988-1.112l-.197-.012-.152-.009c-1.193-.07-2.4-.105-3.619-.105-8.255 0-17.092 1.923-26.328 5.727-4.614 1.901-7.975 4.399-10.293 7.648C8.5 26.204 7.467 29.597 7.467 33.09c0 1.318.146 2.648.437 3.976 3.137 14.335 12.298 42.326 22.029 55.317 4.77 6.372 9.195 10.006 13.153 10.806 1.149.232 2.188.346 3.111.346 4.352 0 7.035-2.372 9.312-5.097 1.083-1.296 2.086-2.573 3.031-3.778.586-.746 1.153-1.469 1.705-2.164l.011-.014.1-.126.018.016c.086.08.174.161.266.245l.208.195c.161.154.33.313.511.481l.129.118.105.095c.021.02.043.039.065.058l-.04.062c-.173.266-.414.647-.558 1.103a6.33 6.33 0 0 0-.263 1.831c0 .644.086 1.292.257 1.937.293 1.106.774 2.168 1.43 3.153a13.81 13.81 0 0 0 2.495 2.897c1.077.978 2.391 1.838 3.905 2.554 1.613.763 3.403 1.347 5.318 1.735l.151.031c.025.005.049.01.074.015l.187.039c.106.022.212.042.319.062l.203.038.152.027.19.033.193.033.187.03.141.022.172.027c.08.012.16.023.238.034l.17.024a102.8 102.8 0 0 0 3.237.374l.184.017.219.02.118.01.172.015.288.022c.134.01.275.02.418.03l.137.009.13.009c1.155.079 2.391.133 3.562.133h.191c.216-.002.439-.008.671-.016l.165-.006c.22-.009.495-.02.823-.038l.187-.01c.139-.008.287-.017.441-.027l.199-.012c2.426-.162 5.357-.614 8.376-1.484 4.025-1.159 8.245-2.956 11.631-5.545 2.149-1.643 3.921-3.554 5.26-5.674 1.34-2.119 2.249-4.455 2.699-6.938.449-2.481.437-5.1-.039-7.793-.478-2.707-1.46-5.475-2.93-8.223-.195-.365-.399-.725-.611-1.079l-.029-.049a49.538 49.538 0 0 0-.647-1.07l-.029-.046a51.86 51.86 0 0 0-.723-1.114l-.016-.024c-.24-.362-.491-.717-.751-1.066l-.041-.055c-.086-.115-.175-.229-.265-.343l-.054-.068c-.177-.225-.359-.446-.545-.663l-.089-.104a31.42 31.42 0 0 0-.527-.593l-.075-.082c-.103-.111-.209-.221-.316-.33l-.058-.059c-.125-.127-.252-.251-.382-.374l-.07-.067c-.111-.106-.225-.21-.34-.312l-.074-.066c-.121-.108-.244-.213-.368-.316l-.068-.056a24.66 24.66 0 0 0-.453-.36l-.062-.049a27.63 27.63 0 0 0-.43-.32l-.087-.063c-.097-.07-.196-.139-.296-.206l-.088-.061c-.114-.077-.229-.152-.345-.225l-.073-.047c-.134-.086-.27-.169-.407-.249l-.057-.034c-.15-.088-.302-.173-.455-.254l-.045-.025c-.166-.088-.335-.173-.504-.253l-.035-.017c-.18-.086-.361-.167-.543-.243l-.025-.011c-.191-.08-.384-.155-.576-.226l-.016-.006c-.2-.073-.4-.14-.601-.203l-.009-.003c-.208-.065-.416-.124-.624-.179l-.004-.001c-.214-.056-.428-.107-.64-.153l-.003-.001c-.219-.048-.437-.09-.654-.128h-.003c-.221-.039-.44-.073-.657-.102h-.003c-.221-.03-.44-.055-.656-.075h-.003c-.219-.021-.436-.037-.65-.049h-.003c-.216-.012-.428-.02-.638-.024h-.003c-.21-.004-.416-.005-.619-.003h-.003c-.201.002-.4.008-.596.017h-.003c-.193.01-.384.024-.571.041h-.003c-.185.018-.367.04-.547.065h-.004c-.175.025-.348.054-.519.087h-.004c-.166.033-.33.071-.492.112h-.004c-.156.041-.31.087-.461.136l-.004.001c-.147.049-.292.102-.434.159l-.004.002c-.137.055-.272.115-.405.179l-.004.002c-.128.062-.253.127-.377.198l-.004.002c-.119.068-.235.14-.35.216l-.004.003c-.11.074-.217.151-.322.232l-.004.003c-.101.08-.2.163-.297.25l-.004.004c-.093.085-.183.173-.271.265l-.004.004c-.084.09-.166.182-.245.278l-.004.005-.223.296-.004.006-.203.317-.004.007c-.062.104-.122.21-.179.318l-.004.008c-.054.104-.106.21-.154.319l-.004.009c-.045.105-.088.212-.128.321l-.003.009c-.038.106-.072.214-.104.324l-.003.009c-.029.107-.056.217-.08.328l-.002.009a5.55 5.55 0 0 0-.107.695l-.001.01c-.009.111-.015.223-.018.336 0 .033-.002.066-.002.1 0 .048.001.095.003.142.028 1.12.387 2.249 1.088 3.358.702 1.11 1.76 2.211 3.195 3.29l.136.101c.142.105.289.209.443.313l.112.076c.145.098.296.194.454.289l.118.07c.15.089.307.177.471.265l.118.064c.159.084.324.168.497.251l.112.054c.173.082.353.163.542.244l.098.042c.196.084.401.166.615.248l.074.028c.226.086.462.17.709.253l.042.014c.269.089.551.176.847.262.314.09.646.179.996.265.348.087.712.171 1.094.254.379.082.775.161 1.186.236.409.076.833.148 1.273.217.437.068.888.133 1.354.193.464.061.942.117 1.435.169.489.052.993.099 1.51.141.514.042 1.042.079 1.583.11.538.032 1.089.058 1.653.079.56.02 1.133.035 1.719.043.583.008 1.179.011 1.788.006h.192a107.8 107.8 0 0 0 1.727-.024c.574-.015 1.159-.037 1.756-.066.593-.029 1.198-.066 1.814-.11.612-.044 1.237-.096 1.873-.156.635-.06 1.28-.129 1.939-.206.654-.077 1.322-.163 2.002-.258.677-.095 1.366-.2 2.07-.315.7-.114 1.413-.239 2.14-.374.724-.134 1.461-.28 2.212-.437.749-.157 1.511-.326 2.287-.507.773-.181 1.56-.375 2.36-.582.798-.207 1.608-.428 2.433-.663.822-.235 1.657-.484 2.506-.749.846-.265 1.705-.546 2.579-.844.87-.298 1.753-.612 2.65-.944.895-.332 1.803-.682 2.726-1.051.92-.37 1.853-.759 2.8-1.168.944-.41 1.902-.84 2.872-1.293.968-.452 1.949-.927 2.942-1.425.989-.498 1.993-1.02 3.007-1.568 1.012-.548 2.035-1.121 3.07-1.722 1.032-.601 2.076-1.229 3.131-1.888 1.052-.658 2.115-1.346 3.189-2.066 1.071-.719 2.153-1.47 3.246-2.255 1.09-.784 2.19-1.602 3.302-2.456 1.109-.854 2.227-1.742 3.356-2.669 1.127-.928 2.262-1.892 3.407-2.896 1.142-1.005 2.293-2.049 3.452-3.135 1.157-1.086 2.321-2.213 3.494-3.384 1.171-1.171 2.35-2.386 3.535-3.647 1.184-1.262 2.376-2.569 3.574-3.925 1.196-1.356 2.398-2.76 3.608-4.212 1.207-1.453 2.42-2.954 3.639-4.507 1.216-1.554 2.438-3.159 3.665-4.816l-.013-.01c-.055-.045-.113-.092-.172-.141l-.023-.018c-.056-.046-.113-.093-.172-.142l-.022-.018-.175-.144-.022-.018c-.057-.047-.115-.094-.175-.144l-.022-.018-.175-.144-.022-.018-.176-.144-.022-.018-.176-.144-.022-.018-.177-.144-.022-.018-.177-.144-.022-.018-.178-.143-.022-.018-.178-.143-.022-.018-.179-.143-.022-.017-.179-.143-.022-.017-.18-.142-.022-.017-.18-.142-.022-.017-.18-.142-.021-.017-.181-.141-.021-.017-.181-.141-.021-.017c-.061-.047-.122-.094-.182-.141l-.021-.016c-.061-.047-.122-.094-.182-.14l-.021-.016c-.061-.047-.122-.093-.183-.14l-.021-.016c-.061-.047-.122-.093-.183-.139l-.021-.016c-.061-.046-.123-.092-.184-.139l-.021-.015c-.061-.046-.123-.092-.184-.138l-.021-.015-.185-.137-.02-.015c-.062-.045-.124-.091-.186-.137l-.02-.015-.186-.136-.02-.014c-.062-.045-.125-.09-.187-.135l-.02-.014-.187-.135-.02-.014-.188-.134-.02-.014-.188-.133-.02-.014-.189-.133-.019-.013c-.063-.044-.127-.088-.19-.132l-.019-.013a77.3 77.3 0 0 0-.191-.132l-.019-.013-.191-.131-.019-.013-.192-.131-.019-.012-.192-.13-.019-.012a83.203 83.203 0 0 0-.386-.26l-.019-.012c-.064-.043-.129-.086-.193-.128l-.019-.012-.194-.128-.018-.012-.194-.127-.018-.012-.195-.126-.018-.012-.195-.126-.018-.011c-.065-.042-.13-.083-.196-.125l-.018-.011-.196-.124-.018-.011-.197-.124-.018-.011-.197-.123-.018-.011-.198-.123-.018-.01-.198-.122-.017-.01-.199-.121-.017-.01c-.066-.041-.133-.081-.2-.121l-.017-.01-.2-.12-.017-.01c-.067-.04-.134-.08-.2-.12l-.017-.01-.201-.119-.017-.01-.202-.118-.017-.01-.202-.118-.017-.009-.202-.117-.017-.009-.203-.117-.016-.009-.203-.116-.016-.009-.204-.115-.016-.009-.204-.115-.016-.009-.205-.114-.016-.009-.205-.114-.016-.008-.206-.113-.016-.008-.206-.112-.016-.008-.206-.112-.016-.008-.207-.111-.015-.008-.207-.111-.015-.008-.208-.11-.015-.008-.208-.11-.015-.007c-.07-.037-.14-.073-.209-.109l-.015-.007-.209-.108-.015-.007-.21-.108-.015-.007-.21-.107-.014-.007-.21-.106-.015-.007-.211-.106-.014-.007-.211-.105-.014-.006-.212-.105-.014-.006c-.071-.035-.142-.069-.212-.104l-.014-.006-.213-.103-.014-.006-.213-.102-.014-.006-.214-.102-.014-.006-.214-.101-.013-.006-.215-.1-.013-.006-.215-.1-.013-.005-.216-.099-.013-.005-.216-.099-.013-.005-.216-.098-.013-.005-.217-.097-.013-.005-.217-.097-.012-.005-.218-.096-.012-.005-.218-.095-.012-.005-.219-.095-.012-.005-.219-.094-.012-.004-.219-.093-.012-.004-.22-.093-.012-.004-.22-.092-.012-.004-.221-.091-.011-.004-.221-.091-.011-.004-.222-.09-.011-.004-.222-.089-.011-.004-.222-.088-.011-.004-.223-.088-.011-.003-.223-.087-.011-.003c-.075-.029-.149-.057-.224-.086l-.011-.004-.224-.085-.01-.004-.225-.084-.01-.003-.225-.084-.01-.003-.225-.083-.01-.003-.226-.082-.01-.003-.226-.081-.01-.003-.227-.081-.01-.003-.227-.08-.01-.003-.227-.079-.01-.002-.228-.078-.009-.003-.228-.077-.009-.003-.229-.077-.009-.002-.229-.076-.009-.002-.229-.075-.009-.002-.23-.074-.009-.002-.23-.074-.009-.002-.23-.073-.009-.002-.231-.072-.009-.002-.231-.071-.008-.002-.231-.07-.009-.002-.232-.07-.008-.002-.232-.069-.008-.002-.232-.068-.008-.002-.233-.067-.008-.001-.233-.066-.008-.001-.233-.065-.008-.001-.234-.065-.008-.001-.234-.064-.008-.001-.234-.063-.008-.001-.234-.062-.008-.001-.235-.061-.007-.001-.235-.06-.007-.001-.235-.06-.007-.001-.236-.059-.007-.001-.236-.058-.007-.001-.236-.057-.007-.001-.236-.056-.007-.001-.237-.055-.007-.001-.237-.054-.007-.001-.237-.054-.007 0-.237-.052-.007-.001-.238-.052-.006 0-.238-.051-.006 0-.238-.05-.006 0-.239-.049-.006 0-.239-.048-.006 0-.239-.048-.006 0-.239-.046-.006 0-.239-.046-.006 0-.24-.045-.006 0-.24-.044-.006 0-.24-.043-.006 0-.24-.042-.006 0-.24-.041-.005 0-.241-.04-.005 0-.241-.04-.005 0-.241-.038-.005 0-.241-.037-.005 0-.241-.037-.005 0-.242-.035-.005 0-.242-.035-.005 0-.242-.033-.005 0-.242-.033-.005 0-.242-.031-.005 0-.242-.031-.005 0-.243-.029-.004 0-.243-.029-.004 0-.243-.027-.004 0-.243-.027-.004 0-.243-.025-.004 0-.244-.025-.004 0-.244-.024-.004 0-.244-.022-.004 0-.244-.022-.004 0-.244-.02-.004 0-.244-.02-.004 0-.245-.018-.004 0-.245-.017-.003 0-.245-.016-.003 0-.245-.015-.003 0-.245-.014-.003 0-.245-.012-.003 0-.246-.012-.003 0-.246-.01-.003 0-.246-.009-.002 0-.246-.008-.002 0-.246-.007-.002 0-.246-.005-.002 0-.247-.004-.002 0-.247-.003-.002 0-.247-.002h-.002l-.247-.001h-.002-.247-.002-.247-.002-.247-.001H93.41l-.001.003-.247.004-.001.001-.247.005-.001.001-.248.007-.001.001-.248.008-.001.001-.248.01h-.001l-.248.011h-.001l-.248.013h-.001l-.248.014-.001.001-.248.015-.001.001-.249.017h-.001l-.249.018-.001.001-.249.02h-.001l-.249.021-.001.001-.249.022-.001.001-.249.024v.001l-.25.025-.001.001-.25.026v.001l-.25.028-.001.001-.25.029-.001.001-.25.03-.001.001-.25.032v.001l-.25.033-.001.001-.25.035v.001l-.251.036-.001.001-.251.037v.001l-.251.039h-.001l-.251.04v.001l-.251.042v.001l-.251.043-.001.001-.251.044-.001.001-.251.046h-.001l-.251.047-.001.001-.251.048-.001.001-.251.05v.001l-.251.051-.001.001-.251.052-.001.001-.251.054v.001l-.251.055-.001.001-.251.056-.001.001-.251.058v.001l-.251.059-.001.001-.251.06-.001.001-.251.062v.001l-.251.063-.001.001-.25.064-.001.001-.25.066-.001.001-.25.067v.001l-.25.068-.001.001-.25.07v.001l-.25.071-.001.001-.25.072-.001.001-.25.073-.001.001-.25.075-.001.001-.249.076-.001.001-.249.077-.001.001-.249.079v.001l-.249.08-.001.001-.249.081-.001.001-.249.082v.001l-.248.084-.001.001-.248.085-.001.001-.248.086-.001.001-.248.088-.001.001-.247.089-.001.001-.247.09-.001.001-.247.091v.001l-.247.093-.001.001-.246.094-.001.001-.246.095-.001.001-.246.096-.001.001-.246.098-.001.001-.245.099-.001.001-.245.1-.001.001-.245.101-.001.001-.244.102-.001.001-.244.104-.001.001-.244.105-.001.001-.243.106-.001.001-.243.107-.001.001-.243.108-.001.001-.242.11-.001.001-.242.111-.001.001-.242.112-.001.001-.241.113-.001.001-.241.114-.001.001-.241.116-.001.001-.24.117-.001.001-.24.118-.001.001-.239.119-.001.001-.239.12-.001.001-.239.122-.001.001-.238.123-.001.001-.238.124-.001.001-.237.125-.001.001-.237.126-.001.001-.237.127-.001.001-.236.129-.001.001-.236.13-.001.001-.235.131-.001.001-.235.132-.001.001-.234.133-.001.001-.234.134-.001.002-.234.135-.001.001-.233.137-.001.001-.233.137-.001.002-.232.139-.001.001-.232.14-.001.001-.231.141-.001.002-.231.142-.001.002-.23.143-.001.001-.23.144-.001.002-.229.145-.001.002-.229.147-.001.001-.228.148-.001.002-.228.149-.001.002-.227.15-.001.002-.227.151-.001.002-.226.152-.001.002-.226.153-.001.002-.225.154-.001.002-.224.155-.001.002-.224.156-.001.002-.223.157-.001.002-.223.159-.001.002-.222.159-.001.002-.222.161-.001.002-.221.162-.001.002-.22.163-.001.002-.22.164-.001.002-.219.165-.001.002-.219.166-.001.002-.218.167-.001.002-.217.168-.001.002-.217.169-.001.002-.216.17-.001.002-.215.172-.001.002-.215.173-.001.002-.214.173-.001.002-.214.175-.001.002-.213.176-.001.002-.212.177-.001.002-.212.178-.001.002-.211.179-.001.002-.21.18-.001.002-.21.181-.001.002-.209.182-.001.002-.208.183-.001.002-.208.185-.001.002-.207.185-.001.002-.206.187-.001.002-.206.188-.001.002-.205.189-.001.002-.204.19-.001.002-.204.191-.001.002-.203.192-.001.002-.202.193-.001.002-.201.194-.001.002-.201.195-.001.002-.2.196-.001.002-.199.197-.001.002-.199.198-.001.002-.198.199-.001.002-.197.2-.001.002-.196.201-.001.002-.196.202-.001.002-.195.203-.001.002-.194.204-.001.002-.193.205-.001.002-.193.206-.001.002-.192.207-.001.002-.191.208-.001.002-.19.209-.001.002-.19.21v.002l-.188.211-.001.002-.188.212-.001.002-.187.213-.001.002-.186.214-.001.002-.185.215-.001.002-.185.216v.002l-.184.217-.001.002-.183.218-.001.002-.182.219v.002l-.182.22-.001.002-.181.221v.002l-.18.222-.001.002-.179.223-.001.002-.178.224-.001.002-.178.225v.002l-.177.226-.001.002-.176.227v.002l-.175.228-.001.002-.174.229-.001.002-.174.23v.002l-.173.231-.001.002-.172.232v.002l-.171.233-.001.002-.17.234-.001.002-.169.235-.001.002-.169.236v.002l-.168.237-.001.002-.167.238v.002l-.166.239-.001.002-.165.24-.001.002-.165.241v.002l-.164.242v.002l-.163.243-.001.002-.162.244v.002l-.161.245-.001.002-.16.246-.001.002-.16.247v.002l-.158.248-.001.002-.158.249v.002l-.157.25v.002l-.156.251-.001.002-.155.252v.002l-.154.253-.001.002-.154.254v.002l-.152.255-.001.002-.152.256v.002l-.151.257v.002l-.15.258-.001.002-.149.259v.002l-.148.26-.001.002-.147.261v.002l-.147.262v.002l-.146.263v.002l-.145.264v.002l-.144.265v.002l-.143.266-.001.002-.142.267v.002l-.142.268v.002l-.141.269v.002l-.14.27v.002l-.139.271v.002l-.138.272v.002l-.138.273v.002l-.137.274v.002l-.136.275v.002l-.135.276v.002l-.134.277v.002l-.134.278v.002l-.133.279v.002l-.132.28v.002l-.131.281v.002l-.13.282v.002l-.13.283v.002l-.129.284v.002l-.128.285v.002l-.127.286v.002l-.126.287v.002l-.126.288v.002l-.125.289v.002l-.124.29v.002l-.123.291v.002l-.122.292v.002l-.122.293v.002l-.121.294v.002l-.12.295v.002l-.119.296v.002l-.118.297v.002l-.118.298v.002l-.117.299v.002l-.116.3v.002l-.115.301v.002l-.115.302v.002l-.114.303v.002l-.113.304v.002l-.112.305v.002l-.111.306v.002l-.111.307v.002l-.11.308v.002l-.109.309v.002l-.108.31v.002l-.107.311v.002l-.107.312v.002l-.106.313v.002l-.105.314v.002l-.104.315v.002l-.104.316v.002l-.103.317v.002l-.102.318v.002l-.101.319v.002l-.1.32v.002l-.1.321v.002l-.099.322v.002l-.098.323v.002l-.097.324v.002l-.097.325v.002l-.096.326v.002l-.095.327v.002l-.094.328v.002l-.094.329v.002l-.093.33v.002l-.092.331v.002l-.091.332v.002l-.091.333v.002l-.09.334v.002l-.089.335v.002l-.088.336v.002l-.088.337v.002l-.087.338v.002l-.086.339v.002l-.085.34v.002l-.085.341v.002l-.084.342v.002l-.083.343v.002l-.082.344v.002l-.082.345v.002l-.081.346v.002l-.08.347v.002l-.079.348v.002l-.079.349v.002l-.078.35v.002l-.077.351v.002l-.076.352v.002l-.076.353v.002l-.075.354v.002l-.074.355v.002l-.073.356v.002l-.073.357v.002l-.072.358v.002l-.071.359v.002l-.07.36v.002l-.07.361v.002l-.069.362v.002l-.068.363v.002l-.067.364v.002l-.067.365v.002l-.066.366v.002l-.065.367v.002l-.064.368v.002l-.064.369v.002l-.063.37v.002l-.062.371v.002l-.061.372v.002l-.061.373v.002l-.06.374v.002l-.059.375v.002l-.058.376v.002l-.058.377v.002l-.057.378v.002l-.056.379v.002l-.055.38v.002l-.055.381v.002l-.054.382v.002l-.053.383v.002l-.052.384v.002l-.052.385v.002l-.051.386v.002l-.05.387v.002l-.049.388v.002l-.049.389v.002l-.048.39v.002l-.047.391v.002l-.046.392v.002l-.046.393v.002l-.045.394v.002l-.044.395v.002l-.043.396v.002l-.043.397v.002l-.042.398v.002l-.041.399v.002l-.04.4v.002l-.04.401v.002l-.039.402v.002l-.038.403v.002l-.037.404v.002l-.037.405v.002l-.036.406v.002l-.035.407v.002l-.034.408v.002l-.034.409v.002l-.033.41v.002l-.032.411v.002l-.031.412v.002l-.031.413v.002l-.03.414v.002l-.029.415v.002l-.028.416v.002l-.028.417v.002l-.027.418v.002l-.026.419v.002l-.025.42v.002l-.025.421v.002l-.024.422v.002l-.023.423v.002l-.022.424v.002l-.022.425v.002l-.021.426v.002l-.02.427v.002l-.019.428v.002l-.019.429v.002l-.018.43v.002l-.017.431v.002l-.016.432v.002l-.016.433v.002l-.015.434v.002l-.014.435v.002l-.013.436v.002l-.013.437v.002l-.012.438v.002l-.011.439v.002l-.01.44v.002l-.01.441v.002l-.009.442v.002l-.008.443v.002l-.007.444v.002l-.007.445v.002l-.006.446v.002l-.005.447v.002l-.004.448v.002l-.004.449v.002l-.003.45v.002l-.002.451v.002l-.001.452v.452.002l.001.453v.002l.002.454v.002l.003.455v.002l.004.456v.002l.005.457v.002l.006.458v.002l.007.459v.002l.008.46v.002l.009.461v.002l.01.462v.002l.011.463v.002l.012.464v.002l.013.465v.002l.014.466v.002l.015.467v.002l.016.468v.002l.017.469v.002l.018.47v.002l.019.471v.002l.02.472v.002l.021.473v.002l.022.474v.002l.023.475v.002l.024.476v.002l.025.477v.002l.026.478v.002l.027.479v.002l.028.48v.002l.029.481v.002l.03.482v.002l.031.483v.002l.032.484v.002l.033.485v.002l.034.486v.002l.035.487v.002l.036.488v.002l.037.489v.002l.038.49v.002l.039.491v.002l.04.492v.002l.041.493v.002l.042.494v.002l.043.495v.002l.044.496v.002l.045.497v.002l.046.498v.002l.047.499v.002l.048.5v.002l.049.501v.002l.05.502v.002l.051.503v.002l.052.504v.002l.053.505v.002l.054.506v.002l.055.507v.002l.056.508v.002l.057.509v.002l.058.51v.002l.059.511v.002l.06.512v.002l.061.513v.002l.062.514v.002l.063.515v.002l.064.516v.002l.065.517v.002l.066.518v.002l.067.519v.002l.068.52v.002l.069.521v.002l.07.522v.002l.071.523v.002l.072.524v.002l.073.525v.002l.074.526v.002l.075.527v.002l.076.528v.002l.077.529v.002l.078.53v.002l.079.531v.002l.08.532v.002l.081.533v.002l.082.534v.002l.083.535v.002l.084.536v.002l.085.537v.002l.086.538v.002l.087.539v.002l.088.54v.002l.089.541v.002l.09.542v.002l.091.543v.002l.092.544v.002l.093.545v.002l.094.546v.002l.095.547v.002l.096.548v.002l.097.549v.002l.098.55v.002l.099.551v.002l.1.552v.002l.101.553v.002l.102.554v.002l.103.555v.002l.104.556v.002l.105.557v.002l.106.558v.002l.107.559v.002l.108.56v.002l.109.561v.002l.11.562v.002l.111.563v.002l.112.564v.002l.113.565v.002l.114.566v.002l.115.567v.002l.116.568v.002l.117.569v.002l.118.57v.002l.119.571v.002l.12.572v.002l.121.573v.002l.122.574v.002l.123.575v.002l.124.576v.002l.125.577v.002l.126.578v.002l.127.579v.002l.128.579v.003l.129.58v.002l.13.581v.002l.131.582v.002l.132.583v.002l.133.584v.002l.134.585v.002l.135.586v.002l.136.587v.002l.137.588v.002l.138.589v.002l.139.59v.002l.14.591v.002l.141.592v.002l.142.593v.002l.143.594v.002l.144.595v.002l.145.596v.002l.146.597v.002l.147.598v.002l.148.599v.002l.149.6v.002l.15.601v.002l.151.602v.002l.152.603v.002l.153.604v.002l.154.605v.002l.155.606v.002l.156.607v.002l.157.608v.002l.158.609v.002l.159.61v.002l.16.611v.002l.161.612v.002l.162.613v.002l.163.614v.002l.164.615v.002l.165.616v.002l.166.617v.002l.167.618v.002l.168.619v.002l.169.62v.002l.17.621v.002l.171.622v.002l.172.623v.002l.173.624v.002l.174.625v.002l.175.626v.002l.176.627v.002l.177.628v.002l.178.629v.002l.179.63v.002l.18.631v.002l.181.632v.002l.182.633v.002l.183.634v.002l.184.635v.002l.185.636v.002l.186.637v.002l.187.638v.002l.188.639v.002l.189.64v.002l.19.641v.002l.191.642v.002l.192.643v.002l.193.644v.002l.194.645v.002l.195.646v.002l.196.647v.002l.197.648v.002l.198.649v.002l.199.65v.002l.2.651v.002l.201.652v.002l.202.653v.002l.203.654v.002l.204.655v.002l.205.656v.002l.206.657v.002l.207.658v.002l.208.659v.002l.209.66v.002l.21.661v.002l.211.662v.002l.212.663v.002l.213.664v.002l.214.665v.002l.215.666v.002l.216.667v.002l.217.668v.002l.218.669v.002l.219.67v.002l.22.671v.002l.221.672v.002l.222.673v.002l.223.674v.002l.224.675v.002l.225.676v.002l.226.677v.002l.227.678v.002l.228.679v.002l.229.68v.002l.23.681v.002l.231.682v.002l.232.683v.002l.233.684v.002l.234.685v.002l.235.686v.002l.236.687v.002l.237.688v.002l.238.689v.002l.239.69v.002l.24.691v.002l.241.692v.002l.242.693v.002l.243.694v.002l.244.695v.002l.245.696v.002l.246.697v.002l.247.698v.002l.248.699v.002l.249.7v.002l.25.701v.002l.251.702v.002l.252.703v.002l.253.704v.002l.254.705v.002l.255.706v.002l.256.707v.002l.257.708v.002l.258.709v.002l.259.71v.002l.26.711v.002l.261.712v.002l.262.713v.002l.263.714v.002l.264.715v.002l.265.716v.002l.266.717v.002l.267.718v.002l.268.719v.002l.269.72v.002l.27.721v.002l.271.722v.002z"/>
</svg>
